<?xml version="1.0" standalone="no"?>
<!DOCTYPE svg PUBLIC "-//W3C//DTD SVG 20010904//EN"
 "http://www.w3.org/TR/2001/REC-SVG-20010904/DTD/svg10.dtd">
<svg version="1.0" xmlns="http://www.w3.org/2000/svg"
 width="644.000000pt" height="600.000000pt" viewBox="0 0 644.000000 600.000000"
 preserveAspectRatio="xMidYMid meet">
<metadata>
Created by potrace 1.16, written by Peter Selinger 2001-2019
</metadata>
<g transform="translate(0.000000,600.000000) scale(0.100000,-0.100000)"
fill="#000000" stroke="none">
<path d="M0 5915 l0 -85 35 3 c29 4 35 1 35 -14 0 -15 -8 -19 -35 -19 l-36 0
3 -436 3 -437 23 -15 c12 -8 22 -18 22 -23 0 -14 -38 -11 -43 4 -3 7 -6 4 -6
-7 -1 -15 5 -18 44 -14 l45 3 -4 -47 c-4 -43 -3 -48 16 -48 14 0 18 5 14 16
-4 11 1 18 14 21 25 7 34 41 26 101 -3 26 -3 42 2 36 4 -6 41 -11 82 -13 41
-1 77 -7 81 -12 4 -7 13 -7 27 2 17 11 24 11 34 1 10 -10 8 -14 -10 -18 -25
-7 -20 -24 8 -24 13 0 21 10 25 31 5 23 9 28 16 18 5 -8 9 -25 10 -39 l1 -25
8 25 c7 22 8 21 9 -12 1 -21 6 -38 11 -38 15 0 12 81 -5 113 -8 17 -12 40 -8
57 4 24 2 30 -11 30 -11 0 -14 -5 -10 -12 5 -8 2 -9 -11 -5 -9 4 -23 3 -30 -3
-14 -12 -70 13 -79 35 -3 8 -10 15 -16 15 -18 0 -11 -28 12 -44 26 -19 24 -21
-24 -29 -35 -5 -54 6 -26 15 6 2 13 26 15 54 3 35 10 54 25 65 15 12 19 24 16
43 -3 14 0 30 7 36 8 7 11 1 9 -23 -2 -17 -1 -24 2 -14 7 21 23 22 30 2 8 -20
30 -19 40 3 6 13 9 9 14 -18 l7 -35 17 38 c9 21 17 62 17 90 0 152 7 197 28
197 5 0 11 -42 15 -92 4 -51 9 -118 11 -148 2 -30 7 -102 10 -160 3 -58 8
-134 10 -170 34 -476 36 -548 17 -572 -11 -13 -20 -15 -38 -8 -13 5 -24 7 -24
4 0 -2 -12 7 -27 21 -15 14 -31 25 -36 25 -16 0 -19 -33 -11 -93 l9 -62 67 3
68 4 0 -48 0 -47 -117 8 c-65 4 -126 8 -135 8 -25 2 -23 51 2 75 19 17 19 20
5 32 -10 8 -15 9 -13 2 2 -6 -5 -17 -16 -24 -11 -9 -20 -32 -23 -60 -5 -44 -7
-46 -42 -52 -20 -3 -64 -6 -97 -6 -47 0 -63 4 -68 16 -3 9 -4 19 -1 23 2 5 -7
6 -21 3 l-25 -5 2 -108 c1 -60 5 -109 10 -109 5 0 9 -10 10 -22 1 -22 1 -22
10 2 7 21 8 20 4 -9 -3 -18 -5 -39 -6 -45 0 -6 -7 5 -14 24 -11 30 -13 -118
-14 -954 l-1 -988 22 6 c13 3 31 6 41 6 9 0 17 7 17 15 0 8 7 15 16 15 24 0
14 -43 -11 -45 -11 -1 -35 -5 -52 -9 l-33 -8 2 -214 c1 -171 4 -214 15 -214 9
0 13 -16 13 -58 0 -55 1 -58 30 -69 29 -11 42 -33 19 -33 -5 0 -8 4 -5 9 6 8
-25 21 -53 21 -11 0 -11 -3 -1 -15 7 -8 16 -13 20 -10 4 3 10 -2 14 -10 3 -8
1 -15 -4 -15 -6 0 -10 -4 -10 -10 0 -5 8 -7 18 -3 15 5 15 4 -1 -9 -11 -8 -18
-21 -17 -29 4 -27 -2 -104 -7 -91 -2 6 -11 12 -19 12 -12 0 -14 -28 -13 -165
0 -157 1 -165 20 -165 11 0 33 7 49 15 17 9 30 11 30 5 0 -5 -5 -10 -11 -10
-5 0 -7 -5 -3 -12 5 -8 2 -9 -9 -5 -9 3 -19 2 -22 -3 -4 -6 -18 -7 -33 -4 -21
4 -24 3 -12 -5 10 -7 11 -11 3 -11 -15 0 -16 -9 -4 -28 6 -11 15 -9 45 7 20
12 45 21 56 21 11 0 20 7 20 15 0 8 -5 15 -11 15 -8 0 -8 4 1 15 10 12 7 19
-16 40 -20 19 -30 22 -40 14 -11 -9 -13 -5 -11 20 2 26 5 30 22 25 11 -4 23
-12 27 -18 6 -8 8 -7 8 1 0 7 7 10 15 6 13 -4 15 0 11 22 -7 37 -16 44 -23 17
-6 -23 -18 -29 -28 -13 -3 5 -1 13 5 16 6 4 8 15 5 26 -8 23 3 24 27 2 22 -20
33 -11 41 34 4 22 2 33 -9 37 -8 3 -13 9 -12 13 1 4 -3 18 -10 30 -9 17 -9 22
3 27 8 3 15 1 15 -5 0 -6 7 -17 16 -26 18 -18 17 -101 -2 -120 -7 -7 -10 -36
-7 -77 3 -46 0 -66 -8 -66 -7 0 -9 -9 -5 -25 4 -15 2 -25 -4 -25 -6 0 -9 -3
-7 -7 3 -5 -7 -9 -21 -10 -15 0 -28 -6 -30 -12 -2 -6 -9 -11 -15 -11 -7 0 -25
-11 -40 -25 -22 -21 -25 -30 -17 -45 14 -26 17 -28 96 -35 67 -7 71 -6 77 14
3 14 0 24 -9 28 -15 6 -21 93 -5 93 17 0 33 57 22 78 -13 25 -3 89 21 129 10
17 14 33 9 35 -6 1 -12 22 -13 45 -2 22 -7 39 -11 36 -5 -3 -7 3 -5 13 2 11 8
18 14 17 5 -1 10 19 11 43 1 41 0 43 -18 33 -11 -5 -25 -7 -31 -3 -7 4 -8 3
-4 -4 4 -7 3 -19 -2 -28 -8 -14 -10 -14 -26 1 -16 16 -25 16 -71 0 -18 -6 -18
-5 -3 5 11 6 20 30 24 62 l7 51 16 -34 c9 -18 23 -35 32 -37 20 -4 52 26 43
40 -4 5 4 5 16 -2 12 -7 20 -8 17 -3 -3 5 -2 15 2 22 4 6 11 -49 15 -123 5
-114 10 -142 28 -173 16 -26 18 -38 10 -41 -16 -5 -15 -82 2 -104 7 -10 26
-18 42 -18 95 0 149 -43 157 -123 5 -46 36 -219 52 -286 5 -20 10 -22 35 -17
17 3 30 1 30 -4 0 -5 12 -13 27 -16 16 -4 35 -13 44 -21 12 -10 29 -12 58 -8
36 5 41 4 41 -14 0 -10 -3 -21 -8 -24 -4 -2 -2 -3 4 -1 6 1 17 -2 25 -7 20
-12 4 -22 -64 -43 -54 -16 -61 -16 -102 -1 -45 18 -70 13 -61 -10 3 -8 10 -50
16 -94 9 -67 8 -85 -4 -109 -8 -16 -22 -32 -31 -35 -8 -4 -15 -11 -15 -17 0
-14 123 -13 138 2 9 9 12 9 12 0 0 -9 50 -12 195 -12 l195 0 0 60 c0 77 40
179 89 227 20 20 60 46 89 59 48 22 52 26 52 59 0 19 -3 34 -7 33 -5 -1 -17 3
-29 9 -18 11 -29 7 -80 -30 -32 -24 -79 -52 -104 -64 -25 -11 -59 -34 -76 -50
-26 -25 -116 -65 -222 -97 -39 -13 -26 20 16 37 77 31 279 132 332 165 77 49
137 73 176 70 32 -2 34 -4 35 -40 1 -21 2 -43 3 -50 0 -6 29 -17 62 -24 75
-15 105 -33 102 -58 -2 -11 3 -21 11 -24 8 -3 11 0 7 7 -4 6 -1 11 9 11 12 0
14 -6 9 -28 -4 -15 -13 -34 -21 -43 -12 -14 -11 -18 2 -29 20 -17 19 -33 -5
-55 -11 -10 -20 -25 -20 -34 0 -12 4 -10 15 6 44 62 111 10 80 -64 -8 -19 -15
-39 -15 -44 0 -5 42 -9 94 -9 l94 0 17 64 c29 106 18 198 -35 302 -23 46 -58
100 -77 121 l-35 36 24 13 c29 17 41 17 32 2 -4 -7 -3 -8 5 -4 6 4 30 -2 51
-13 49 -26 52 -11 5 25 -19 14 -35 33 -35 42 0 13 3 12 20 -3 21 -19 42 -13
22 7 -7 7 -12 20 -12 29 0 9 -25 40 -56 68 -44 40 -63 51 -89 51 -42 0 -55 20
-58 92 l-2 53 35 -1 c28 0 38 -6 50 -30 8 -16 20 -32 25 -36 6 -4 37 -33 70
-64 64 -61 144 -118 213 -153 58 -30 63 -21 10 15 -51 34 -79 64 -73 75 3 4 1
10 -4 13 -5 3 -7 14 -4 25 8 32 -24 78 -96 136 -39 30 -73 59 -76 65 -3 6 -16
8 -29 4 -29 -7 -76 30 -76 61 0 39 11 55 54 77 48 25 91 35 81 18 -7 -12 19
-71 43 -100 7 -8 50 -52 95 -97 62 -63 94 -87 137 -103 94 -36 143 -61 182
-92 21 -16 38 -25 38 -20 0 16 -54 53 -134 92 l-71 35 0 60 c0 55 -2 60 -22
63 -13 2 -23 9 -23 17 0 18 -31 28 -44 15 -8 -8 -6 -9 7 -5 12 5 17 2 17 -9 0
-9 -4 -16 -9 -16 -16 0 -25 23 -23 55 3 30 -9 51 -60 108 -32 34 -37 61 -10
53 9 -3 31 -8 47 -12 17 -4 41 -14 55 -22 14 -9 -22 33 -80 92 l-105 107 22
18 22 19 -26 -1 c-30 0 -75 45 -67 67 3 9 11 16 18 16 19 0 118 -109 110 -122
-4 -6 -3 -8 4 -4 6 3 13 2 17 -4 3 -5 17 -10 29 -10 13 0 47 -14 77 -30 30
-17 83 -44 119 -61 222 -105 267 -129 284 -147 11 -13 21 -45 26 -84 5 -42 18
-82 38 -117 31 -57 30 -91 -3 -91 -20 0 -19 -16 1 -24 21 -8 26 -8 20 3 -3 5
7 23 24 41 21 22 35 30 49 25 17 -5 21 0 26 39 5 32 13 47 26 51 10 4 19 9 20
13 1 4 3 24 4 44 5 50 27 90 75 135 22 20 43 47 46 60 4 13 10 23 15 23 4 0
11 17 15 38 4 20 18 53 30 72 13 19 24 38 24 43 0 7 30 37 107 107 16 14 43
45 61 70 31 43 32 45 12 48 -15 3 -19 9 -15 22 3 10 1 21 -5 25 -6 4 -7 12 -1
23 5 9 12 38 16 64 4 26 11 46 15 43 4 -2 16 3 26 13 36 33 73 52 88 46 9 -3
16 -1 16 4 0 6 21 14 48 18 48 7 91 25 127 55 24 20 77 31 72 16 -5 -16 51
-60 68 -54 7 3 16 1 19 -6 3 -9 5 -9 5 0 1 17 48 -1 81 -31 14 -13 37 -26 53
-28 23 -5 27 -2 22 13 -4 13 -1 19 9 19 29 0 16 19 -26 41 -51 26 -49 24 -51
41 -2 7 -12 29 -24 48 -32 53 -37 84 -18 123 20 42 56 59 122 57 91 -3 160 2
323 25 60 8 201 51 194 58 -4 4 -1 8 7 8 8 1 21 3 29 4 8 1 23 3 33 4 10 0 15
6 12 11 -3 6 3 10 13 10 11 0 25 6 31 14 6 7 25 16 42 20 30 6 131 46 173 68
11 6 45 13 77 15 51 5 57 8 55 27 -1 11 -7 30 -13 41 -6 11 -16 36 -22 56 -7
21 -21 47 -31 60 -11 12 -20 32 -20 44 0 13 -7 28 -16 36 -9 8 -14 25 -12 46
1 18 -3 38 -10 45 -6 6 -12 17 -12 23 -1 5 -9 28 -20 50 l-19 40 22 11 c37 19
374 97 391 91 14 -6 16 -45 16 -368 0 -330 -2 -368 -21 -442 -25 -101 -48
-167 -66 -188 -21 -25 -16 -34 25 -48 59 -22 281 -249 322 -331 86 -170 114
-312 111 -547 l-1 -53 -175 0 c-96 0 -174 3 -173 8 3 17 -39 109 -69 148 -14
19 -23 45 -23 66 0 19 -9 53 -20 76 -11 22 -20 45 -20 50 0 21 -93 82 -125 82
-8 0 -15 6 -16 13 0 6 -2 46 -4 87 -8 152 -13 187 -29 219 -14 26 -21 31 -39
25 -17 -5 -19 -4 -10 6 6 7 9 19 6 26 -3 9 10 21 40 34 62 28 76 46 39 53 -16
3 -46 1 -68 -4 -21 -5 -68 -12 -104 -15 -36 -3 -69 -9 -74 -15 -14 -13 -46
-11 -46 2 0 8 -5 7 -15 -1 -9 -7 -18 -10 -22 -7 -3 4 -13 1 -21 -5 -8 -7 -33
-14 -56 -15 -22 -2 -57 -5 -76 -7 -19 -3 -38 -5 -42 -5 -13 -2 -78 -74 -73
-82 13 -20 -136 -25 -273 -10 -10 1 -9 8 3 31 18 35 19 44 4 34 -7 -4 -10 -1
-7 7 3 8 11 14 18 14 7 0 16 10 21 23 l8 22 -47 -25 c-26 -14 -60 -25 -77 -26
-46 -1 -66 -11 -55 -29 13 -20 12 -77 -1 -102 -16 -30 -5 -32 29 -3 16 14 37
25 46 25 23 0 32 -29 15 -45 -18 -16 -64 -31 -55 -17 3 6 -7 7 -26 3 -28 -6
-36 -15 -63 -77 -39 -91 -64 -127 -170 -249 -53 -61 -107 -137 -138 -195 -71
-129 -71 -129 -44 -139 126 -51 164 -62 211 -61 118 2 111 4 148 -47 29 -40
47 -53 104 -75 96 -37 499 -201 559 -228 28 -12 109 -46 181 -75 112 -46 575
-273 597 -294 4 -4 -31 -30 -78 -57 -47 -27 -94 -54 -103 -61 -13 -10 72 -12
413 -12 l430 1 -44 20 -44 20 7 151 c4 84 9 190 12 237 l5 85 -30 -94 c-16
-51 -33 -96 -39 -100 -5 -3 -13 -21 -17 -39 -5 -26 -13 -34 -35 -39 -18 -3
-30 -13 -34 -27 -9 -35 -41 -49 -75 -32 -16 9 -31 21 -34 28 -5 15 5 216 23
478 16 219 16 314 -1 378 -13 53 -13 54 11 73 14 10 30 19 36 19 6 0 19 9 29
20 10 11 26 20 36 20 10 0 21 5 25 11 4 7 27 10 60 7 39 -3 54 -1 54 8 0 7 -4
16 -10 19 -6 4 -7 -1 -3 -12 5 -14 3 -15 -6 -7 -7 7 -11 19 -9 28 3 14 6 14
32 1 33 -17 36 -18 36 -6 0 5 -14 14 -32 22 -17 7 -26 15 -19 17 15 5 71 -17
71 -29 0 -4 -4 -19 -10 -33 -9 -25 -8 -26 63 -47 40 -11 83 -24 97 -29 14 -5
50 -14 80 -21 30 -6 89 -22 130 -34 41 -12 93 -25 115 -28 22 -3 32 -3 22 0
-11 3 -16 11 -13 19 3 8 2 13 -3 9 -13 -7 -42 5 -35 16 3 5 15 9 27 9 20 0 22
5 22 40 0 22 3 40 7 40 4 0 5 16 2 35 l-5 35 48 0 c35 0 44 3 33 10 -8 5 -11
10 -6 10 5 0 3 7 -4 15 -11 13 -7 21 25 49 21 19 50 36 64 39 15 3 33 17 41
32 7 14 18 24 24 22 17 -6 35 25 36 62 0 26 -3 32 -16 27 -9 -3 -18 -6 -20 -6
-2 0 -4 -6 -4 -14 0 -8 -7 -17 -16 -20 -28 -11 -36 -6 -20 10 9 8 14 19 11 24
-3 4 1 23 9 41 10 24 11 37 3 50 -9 14 -7 27 6 54 9 20 17 38 17 40 0 3 -15 5
-34 5 -37 0 -57 16 -33 26 8 3 13 13 11 22 -3 9 0 37 5 62 5 25 9 37 10 28 2
-36 18 -17 25 28 9 70 7 112 -5 116 -9 3 -9 25 -2 83 10 77 10 78 12 26 0 -30
4 -51 8 -47 10 10 3 88 -9 103 -10 13 -2 73 11 73 4 0 8 21 8 47 1 26 6 49 12
51 7 2 10 263 11 853 0 805 -1 849 -17 850 -30 1 -185 18 -238 27 -76 11 -34
21 121 29 125 6 159 13 117 26 -10 3 -44 15 -76 26 -32 12 -93 26 -135 31 -42
6 -99 21 -127 34 -27 13 -84 29 -125 35 -41 7 -89 19 -106 27 -17 7 -70 17
-118 20 -48 4 -83 10 -78 13 5 3 11 97 13 208 3 172 6 203 19 203 8 0 80 7
160 15 80 8 168 15 197 15 l52 0 -5 -62 c-2 -35 -9 -112 -14 -173 -5 -60 -5
-126 -1 -145 6 -26 10 -2 15 95 7 146 23 276 34 287 4 4 76 13 160 19 l152 13
0 48 c0 26 -2 48 -4 48 -8 0 -319 -39 -361 -45 -22 -4 -58 -8 -79 -11 -22 -2
-44 -8 -50 -13 -7 -6 -67 -9 -134 -8 l-123 2 6 85 c13 206 26 389 30 435 2 28
9 124 15 215 6 91 15 215 21 275 5 61 9 127 9 148 l0 37 -244 0 -245 0 -4 -22
-4 -23 -2 23 -1 22 -2635 0 -2635 0 0 -85z m3157 -42 c12 -29 17 -82 20 -218
2 -99 5 -184 5 -190 1 -5 -20 -54 -46 -107 -25 -53 -64 -148 -85 -212 -37
-112 -39 -115 -56 -96 -10 11 -26 20 -36 20 -23 0 -49 -49 -49 -93 0 -19 -5
-59 -11 -88 -6 -30 -14 -90 -18 -133 -6 -77 -7 -80 -36 -89 -16 -5 -76 -27
-132 -49 -92 -35 -107 -45 -148 -92 -40 -47 -55 -57 -133 -85 -48 -17 -123
-52 -165 -77 -43 -26 -79 -45 -80 -43 -1 2 -7 13 -13 24 -19 34 -39 24 -42
-21 -2 -33 -8 -44 -28 -53 -34 -15 -34 -16 -34 29 0 32 -4 40 -19 40 -19 0
-31 -39 -31 -102 0 -19 -12 -37 -42 -62 -23 -20 -45 -36 -50 -36 -14 0 -10
128 5 133 6 3 7 6 1 6 -19 2 -50 -28 -38 -36 7 -5 8 -19 2 -42 -6 -23 -12 -30
-17 -22 -6 10 -15 9 -42 -2 -19 -8 -45 -19 -59 -25 -21 -8 -18 -9 17 -5 50 6
73 -8 73 -44 0 -34 -90 -138 -122 -140 -46 -4 -194 -3 -213 1 -12 2 -46 7 -77
11 -35 4 -59 13 -62 22 -3 8 -10 12 -14 9 -5 -3 -26 2 -48 10 l-39 14 50 -4
c61 -5 106 -15 123 -29 7 -5 14 -8 16 -6 2 2 9 67 16 144 14 163 15 165 35
165 26 0 30 -33 21 -175 -5 -79 -5 -140 0 -145 13 -12 133 -15 144 -4 6 6 7
41 2 93 -11 116 -7 139 29 145 16 3 43 9 59 12 17 3 28 9 25 14 -3 4 -24 3
-46 -3 -31 -7 -47 -7 -60 1 -10 7 -29 12 -41 12 -13 0 -28 4 -35 8 -15 9 -10
75 5 80 7 2 10 7 7 12 -2 4 -14 180 -25 391 -30 585 -39 739 -45 799 -3 30 -8
119 -10 197 l-5 142 32 5 c28 5 826 19 1381 24 l168 2 16 -37z m510 -83 c-3
-11 -1 -20 4 -20 5 0 9 7 9 16 0 13 8 15 48 9 26 -4 91 -6 145 -6 61 1 97 -2
97 -9 0 -5 -6 -10 -14 -10 -8 0 -18 -4 -21 -10 -3 -6 5 -10 19 -10 18 0 26 6
29 23 3 16 5 13 6 -10 0 -19 6 -33 14 -33 6 -1 -1 -8 -18 -17 -16 -9 -32 -19
-35 -23 -3 -4 -11 -2 -18 6 -8 9 -9 14 -2 14 6 0 8 5 4 11 -5 8 -9 7 -15 -3
-8 -15 -59 -14 -59 1 0 14 -81 5 -91 -9 -7 -12 -9 -9 -9 10 0 24 -1 24 -21 -9
-23 -38 -36 -37 -18 3 15 32 5 45 -21 28 -17 -10 -20 -10 -20 3 0 19 -29 20
-36 0 -4 -8 -10 -13 -15 -10 -4 3 -6 12 -3 20 4 8 11 12 17 8 6 -3 7 -1 3 5
-4 7 -1 18 6 26 18 21 21 20 15 -4z m713 -991 c0 -5 -9 -29 -19 -52 -10 -23
-24 -62 -31 -87 -6 -25 -16 -53 -21 -62 -18 -35 -10 -55 29 -71 34 -15 95 -37
245 -90 49 -17 65 -30 110 -86 29 -36 61 -78 70 -93 15 -24 92 -292 103 -358
l4 -25 -9 25 c-7 21 -9 16 -10 -27 -1 -29 -5 -53 -11 -53 -5 0 -9 8 -8 18 3
38 -2 83 -9 79 -5 -3 -9 9 -10 26 -2 36 -10 127 -12 142 0 5 -6 4 -13 -3 -7
-7 -16 -12 -22 -12 -5 0 -2 6 7 13 17 12 14 62 -3 52 -4 -3 -10 12 -12 33 -3
20 -9 46 -13 56 -7 15 -5 18 6 12 11 -6 10 -4 -1 6 -8 7 -24 30 -35 51 -11 20
-22 37 -26 37 -3 0 -14 16 -25 35 -10 19 -24 35 -31 35 -7 0 -13 5 -13 10 0 6
-12 10 -26 10 -14 0 -47 11 -73 24 -25 13 -73 32 -106 42 -33 10 -65 22 -72
27 -6 4 -26 7 -44 5 -27 -3 -36 -11 -61 -58 -16 -30 -38 -64 -48 -75 -11 -12
-33 -59 -50 -105 -59 -164 -85 -206 -207 -329 -62 -63 -113 -123 -113 -132 0
-10 -3 -24 -6 -32 -3 -10 4 -17 21 -21 19 -5 25 -11 21 -22 -3 -9 -6 -20 -6
-26 0 -5 -7 -2 -16 6 -14 15 -20 11 -60 -44 -25 -33 -50 -62 -55 -65 -17 -11
-9 7 16 36 13 16 22 36 19 43 -3 8 3 20 13 27 10 8 18 25 18 39 0 14 4 28 9
31 5 4 6 12 2 17 -8 13 -80 -30 -228 -136 -100 -72 -104 -74 -152 -69 -26 2
-51 9 -55 14 -3 5 -14 12 -23 16 -10 3 -18 15 -18 26 0 23 12 27 98 36 62 7
87 25 35 25 -16 0 -35 5 -43 10 -13 9 -13 11 0 20 8 5 29 10 45 11 17 0 39 4
50 8 15 6 2 10 -45 16 -63 7 -90 18 -90 36 0 5 10 7 23 4 13 -4 41 4 72 20 28
13 48 25 45 26 -3 0 -17 2 -32 3 -15 1 -34 10 -42 21 -18 25 -29 89 -16 93 6
2 10 14 10 27 0 13 4 26 9 30 5 3 13 20 16 38 8 34 40 101 64 130 8 10 28 17
48 17 30 0 34 -3 28 -20 -3 -11 -2 -20 2 -20 5 0 22 -13 39 -29 54 -52 129
-75 162 -48 7 5 15 8 18 5 7 -7 64 44 64 57 0 6 -18 9 -42 8 l-43 -3 30 14
c17 8 53 16 81 19 29 3 61 10 71 16 11 6 23 8 26 5 3 -3 8 0 13 7 5 9 1 10
-16 6 -15 -4 -27 -1 -35 9 -7 10 -39 19 -85 24 -41 5 -86 12 -100 16 -14 3
-27 6 -30 6 -3 0 -10 4 -17 10 -7 5 -16 7 -21 4 -5 -3 -21 3 -35 14 -14 11
-32 17 -41 14 -9 -3 -18 0 -21 8 -3 8 -20 15 -38 16 -46 3 -80 32 -94 81 -10
35 -10 43 2 47 16 7 115 -35 115 -48 0 -4 11 -8 25 -8 22 0 25 3 19 26 -6 23
-4 25 15 19 11 -3 21 -2 21 3 0 6 9 8 20 5 11 -3 28 -2 37 3 10 4 21 8 25 8 3
1 10 4 14 9 4 4 20 7 35 7 15 0 29 5 31 10 2 6 21 11 43 13 22 1 43 6 46 10 3
4 26 8 50 9 24 1 49 5 54 9 19 13 168 50 183 44 16 -6 52 30 52 52 0 8 4 12 9
9 16 -10 62 47 74 91 10 39 27 59 27 32z m1183 -101 c-6 -7 -12 -51 -13 -98
-1 -47 -5 -132 -9 -189 l-6 -104 -35 0 c-19 0 -51 3 -70 7 -19 4 -44 9 -55 11
-11 2 -24 4 -30 6 -5 1 6 4 25 8 l35 6 6 145 c8 193 12 208 52 215 40 6 101
11 106 8 2 -1 -1 -8 -6 -15z m-303 -371 c48 -23 48 -23 95 -26 28 -1 28 -2 10
-13 -11 -6 -22 -12 -24 -14 -1 -1 11 -20 28 -41 35 -45 118 -215 128 -264 10
-55 -4 -53 245 -29 62 6 136 21 177 35 115 40 284 32 327 -16 28 -31 34 -95
14 -158 -22 -72 -65 -368 -83 -581 -2 -23 -13 -39 -28 -40 -3 0 -11 12 -18 26
-19 42 -21 24 -6 -46 24 -119 35 -199 45 -332 6 -73 15 -160 20 -193 13 -81
13 -88 -5 -81 -11 4 -15 -2 -15 -25 0 -20 -4 -29 -12 -27 -8 3 -18 39 -24 84
-6 43 -19 115 -28 158 -17 82 -15 109 5 60 7 -18 13 -24 16 -15 5 11 7 11 14
0 13 -21 11 79 -2 104 -7 11 -13 37 -15 57 -6 79 -17 140 -25 140 -5 0 -9 10
-9 23 0 13 -11 45 -25 72 -13 27 -22 52 -19 56 2 5 0 16 -5 26 -16 30 -36 88
-33 96 1 4 -3 7 -8 7 -6 0 -10 6 -8 13 2 15 -70 169 -84 178 -6 4 -7 12 -4 18
4 6 -8 36 -26 67 -18 31 -38 64 -43 74 -17 29 -37 51 -43 45 -3 -2 -15 6 -27
19 -26 28 -84 60 -93 52 -3 -3 0 -6 6 -6 7 0 12 -5 12 -10 0 -6 -12 -2 -27 8
-68 47 -127 82 -131 77 -14 -13 14 -54 56 -82 66 -45 103 -83 158 -163 29 -43
48 -82 49 -103 2 -19 17 -54 35 -78 17 -24 39 -62 49 -84 10 -22 26 -49 35
-60 l15 -20 1 20 c1 13 6 7 15 -18 8 -21 12 -44 9 -52 -4 -8 -1 -15 6 -15 6 0
8 -4 5 -10 -3 -5 -2 -10 4 -10 6 0 8 -7 4 -16 -3 -9 -2 -19 3 -23 22 -16 92
-323 104 -461 21 -232 23 -257 14 -262 -5 -3 -35 -3 -67 0 -45 3 -60 9 -69 25
-15 29 -14 242 1 427 l14 155 -38 80 c-35 77 -71 168 -80 210 -3 11 -20 42
-38 70 -19 27 -45 68 -57 90 -28 47 -98 132 -142 172 -17 15 -40 37 -52 49
-12 11 -43 35 -71 54 -27 18 -68 50 -90 70 -22 21 -51 41 -65 45 -64 17 -110
39 -110 51 0 17 1 17 51 -2 29 -12 37 -19 27 -25 -9 -6 -6 -9 12 -10 37 -2 54
2 61 13 9 14 -1 87 -16 118 -80 169 -134 235 -211 263 -27 9 -60 18 -74 18
l-25 1 25 8 c39 13 130 1 180 -23z m-4000 -35 c0 -10 3 -22 7 -26 4 -4 6 -25
4 -46 -2 -37 -1 -40 23 -40 19 0 26 -5 26 -20 0 -13 -7 -20 -19 -20 -18 0 -19
-5 -14 -56 l6 -56 -29 4 -29 3 -3 95 c-2 52 -8 110 -13 127 -12 38 -6 53 22
53 12 0 19 -7 19 -18z m-546 -94 c-5 -7 -3 -8 5 -4 7 5 108 4 224 0 117 -5
197 -10 180 -12 -18 -2 -33 -6 -33 -10 0 -4 -48 -7 -108 -8 -59 0 -135 -1
-169 -2 l-63 -2 0 -42 c1 -36 2 -40 11 -24 9 15 13 16 20 5 6 -10 9 -5 10 16
l1 30 7 -30 c5 -21 12 -29 24 -27 15 2 15 0 5 -23 -6 -14 -15 -25 -20 -25 -4
0 -8 -10 -8 -22 -1 -21 -2 -21 -11 -5 -12 21 -29 22 -29 2 0 -8 -4 -15 -10
-15 -5 0 -10 -22 -10 -50 0 -49 -1 -50 -29 -50 -16 0 -37 -3 -46 -7 -16 -5
-17 1 -11 65 3 40 9 104 12 142 4 52 10 70 21 70 8 0 12 4 9 9 -3 4 -18 6 -33
3 -24 -4 -25 -3 -12 11 16 19 74 24 63 5z m-475 -173 c-5 -53 -11 -69 -32 -85
-21 -17 -24 -26 -20 -59 5 -36 4 -38 -27 -45 -66 -13 -68 -11 -74 57 -3 34 -7
92 -10 130 l-4 67 87 0 87 0 -7 -65z m660 -242 c-1 -105 -14 -175 -34 -189
-10 -8 -40 -14 -66 -14 -81 0 -107 -9 -112 -39 -2 -14 -5 10 -6 54 -1 44 -5
86 -10 94 -8 12 -29 12 -143 2 -181 -17 -285 -34 -299 -48 -9 -9 -13 -49 -13
-123 l0 -110 -33 -1 c-42 -2 -45 -3 -61 -12 -9 -6 -12 16 -12 102 0 89 3 111
14 111 8 0 19 14 25 30 13 38 -1 40 -19 3 l-13 -28 -9 28 c-5 15 -16 27 -24
27 -8 0 -14 5 -14 10 0 6 5 10 10 10 6 0 10 11 10 25 0 14 -5 25 -12 25 -6 0
-3 9 7 20 18 20 41 28 30 10 -3 -5 0 -7 8 -4 9 3 22 -4 31 -18 12 -17 16 -19
16 -6 0 9 -4 20 -10 23 -24 15 -5 23 71 30 45 3 88 9 96 12 9 4 16 -3 20 -17
6 -21 10 -22 72 -17 36 3 60 3 54 0 -7 -2 -13 -20 -13 -39 0 -34 1 -34 44 -34
44 0 44 0 48 40 3 35 1 39 -22 43 -14 2 16 5 65 6 106 2 166 14 180 35 7 12
26 16 67 16 l58 0 -1 -57z m-369 -113 c0 -5 -15 -10 -34 -10 -27 0 -34 -4 -31
-17 2 -10 4 -42 4 -71 1 -73 30 -102 92 -96 l44 4 -47 -13 c-56 -16 -92 -39
-114 -72 -9 -14 -19 -23 -23 -21 -4 3 -7 -3 -8 -12 -1 -34 -28 -118 -38 -119
-5 -1 -11 -7 -14 -14 -2 -8 3 -10 18 -6 16 4 21 1 21 -14 0 -10 -5 -19 -12
-19 -8 0 -9 -31 -4 -117 3 -64 4 -115 2 -112 -5 5 -33 233 -41 342 -8 91 -25
117 -77 117 l-33 0 2 106 c1 58 3 107 5 109 2 2 55 10 118 19 128 17 164 23
168 25 1 0 2 -3 2 -9z m427 -178 c-16 -3 -17 -5 -3 -15 8 -7 17 -25 21 -42 5
-28 4 -28 -9 5 -8 19 -15 28 -15 18 -1 -9 -8 -15 -18 -13 -10 1 -13 0 -6 -2
14 -5 21 -82 10 -125 -5 -18 -8 -41 -8 -52 0 -14 -6 -17 -29 -14 -25 4 -31 0
-39 -24 -6 -15 -12 -28 -15 -28 -6 0 14 62 26 76 11 15 -1 46 -15 37 -6 -4 -8
4 -4 23 3 18 0 37 -9 48 -8 12 -14 14 -14 7 0 -7 -17 1 -37 19 -20 18 -51 39
-70 46 -34 15 -44 34 -17 34 9 0 12 -5 8 -12 -6 -10 -4 -10 7 0 8 8 47 12 115
12 59 0 106 4 109 10 4 6 12 7 18 3 8 -5 6 -9 -6 -11z m-282 -108 c4 -42 3
-80 -2 -85 -5 -5 -58 -15 -118 -23 -61 -8 -118 -18 -127 -21 -41 -16 -1 99 51
149 31 29 101 54 157 55 l32 1 7 -76z m92 20 c54 -41 68 -91 54 -199 0 -5 -8
0 -16 12 -9 12 -31 25 -50 29 -21 4 -33 11 -29 18 3 6 -1 3 -9 -6 -10 -13 -29
-18 -63 -18 -27 -1 -92 -9 -145 -19 -92 -17 -95 -17 -96 1 -1 10 2 16 6 14 4
-3 52 2 105 10 54 8 103 14 110 13 53 -6 94 18 79 47 -6 10 -13 47 -16 81 -5
62 -5 62 16 52 12 -7 36 -22 54 -35z m-534 -112 c22 -24 43 -233 27 -260 -8
-14 -9 -12 -5 8 3 14 1 48 -4 75 -5 28 -9 40 -10 28 -1 -20 -6 -23 -46 -23
l-45 0 2 43 c3 38 6 43 23 40 19 -4 19 -4 2 11 -11 8 -25 12 -33 9 -8 -3 -14
-4 -15 -2 0 2 -2 22 -5 45 l-5 40 49 3 c37 1 52 -3 65 -17z m499 -108 c22 -7
24 -40 2 -48 -28 -11 -38 -6 -18 8 14 11 16 17 7 27 -13 13 -78 5 -88 -11 -4
-6 7 -7 27 -4 27 6 31 4 20 -7 -7 -8 -34 -13 -67 -13 -30 0 -55 -4 -55 -8 0
-4 -11 -8 -24 -8 -50 0 -56 -8 -57 -79 -1 -57 -2 -61 -9 -28 -10 53 -19 57
-14 5 l3 -43 -9 45 c-6 25 -8 55 -5 67 3 12 1 25 -5 28 -7 4 -7 12 -1 23 15
27 242 63 293 46z m718 -533 c0 -5 12 -11 28 -14 15 -3 78 -35 141 -71 62 -36
136 -73 163 -82 l49 -16 -17 -26 c-42 -64 -54 -91 -45 -96 5 -4 12 -2 16 3 3
6 12 8 19 5 8 -3 17 -1 20 5 4 6 13 8 20 5 8 -3 30 -1 48 4 27 7 46 5 83 -9
47 -18 95 -54 95 -71 0 -9 36 -62 57 -85 6 -7 15 -22 18 -33 4 -11 11 -18 16
-14 5 3 9 2 8 -3 -4 -18 14 -43 32 -43 10 0 19 -4 19 -8 0 -5 24 -21 53 -35
58 -30 97 -60 97 -75 0 -6 5 -12 12 -14 17 -6 0 -28 -22 -28 -10 0 -22 -9 -25
-20 -3 -11 -10 -20 -15 -20 -13 0 -60 -45 -60 -58 0 -15 -82 -92 -98 -92 -7 0
-20 -7 -29 -15 -8 -8 -18 -13 -23 -10 -4 3 -11 -3 -14 -12 -6 -15 -9 -15 -16
-3 -7 11 -11 8 -21 -13 -7 -15 -17 -28 -23 -28 -25 -3 -51 4 -73 18 -19 13
-28 13 -53 3 -24 -10 -33 -10 -46 1 -9 7 -25 14 -37 16 -11 2 -26 8 -32 13 -7
5 -15 7 -18 4 -3 -4 -13 1 -22 10 -22 21 -44 20 -65 -4 -15 -17 -22 -18 -49
-9 -17 6 -38 8 -46 5 -10 -4 -15 1 -15 15 0 11 -4 17 -10 14 -13 -8 -13 -97 0
-163 5 -30 27 -77 55 -120 25 -39 45 -75 45 -81 0 -6 10 -16 23 -22 29 -16 46
-40 40 -56 -3 -7 19 -35 49 -63 29 -28 43 -46 30 -40 -12 6 -29 22 -38 36 -12
18 -20 22 -29 14 -9 -8 -15 -8 -20 0 -3 5 0 10 7 11 10 0 10 2 1 6 -7 2 -13
11 -13 19 0 8 -4 14 -10 14 -5 0 -10 -4 -10 -8 0 -17 -64 2 -85 24 -12 13 -27
24 -32 24 -6 0 -32 19 -58 43 -39 36 -45 47 -40 69 6 21 1 31 -29 54 -20 16
-36 37 -36 46 0 10 -16 28 -35 40 -19 13 -37 30 -40 39 -3 9 -15 19 -26 22
-12 3 -18 10 -15 15 3 6 -5 17 -19 26 -14 9 -25 25 -25 36 0 11 -9 28 -20 37
-11 10 -20 23 -20 31 0 15 -39 89 -57 110 -16 16 -17 106 -3 133 6 10 7 19 2
19 -5 0 -5 24 0 58 5 31 7 73 4 92 -5 33 -3 37 29 54 19 11 35 27 35 36 0 9
11 31 25 50 14 19 25 30 25 25 0 -5 11 7 24 26 42 59 60 78 68 73 4 -3 8 1 8
8 1 7 9 31 20 53 11 22 19 50 20 63 0 12 5 22 11 22 5 0 7 5 4 10 -3 6 -1 10
4 10 6 0 11 -4 11 -9z m2717 -356 c19 -8 44 -15 55 -15 32 0 3 -20 -102 -73
-109 -55 -161 -67 -184 -44 -14 14 -11 18 29 42 25 14 45 28 45 32 0 6 -48 -1
-72 -11 -9 -4 -1 9 18 29 19 20 47 41 62 45 44 13 110 11 149 -5z m1806 -644
c-48 -6 -55 -10 -104 -66 -28 -33 -57 -63 -63 -67 -6 -5 0 -8 14 -8 l25 -1
-25 -14 c-14 -8 -29 -14 -35 -15 -16 0 -56 68 -44 76 6 3 9 15 6 25 -3 11 -1
17 4 13 16 -10 9 8 -8 23 -16 12 -15 13 9 7 14 -3 36 -1 48 6 32 17 98 28 165
27 l60 0 -52 -6z m-4729 -544 c19 -40 38 -84 41 -99 l7 -28 -56 0 c-61 0 -65
-5 -45 -57 19 -46 14 -79 -14 -113 -15 -17 -27 -40 -27 -50 0 -10 -12 -25 -26
-35 -23 -15 -37 -15 -125 -6 -55 6 -125 11 -157 11 -66 0 -104 9 -96 21 7 12
-9 11 -42 -1 -15 -6 -29 -9 -31 -6 -2 2 34 16 81 32 77 25 109 44 73 44 -18 0
-47 36 -47 58 0 21 49 99 80 127 17 15 22 16 37 4 15 -12 16 -12 10 3 -4 13
-2 15 10 11 11 -4 14 -2 9 5 -4 6 14 31 40 57 32 32 44 52 41 65 -6 22 42 63
86 74 19 4 27 13 27 29 1 36 84 -61 124 -146z m-476 -484 c17 -3 32 -11 32
-18 0 -7 15 -23 33 -35 17 -12 25 -20 16 -17 -22 7 -43 -8 -33 -24 13 -22 12
-63 -4 -81 -20 -23 -73 -23 -137 0 -47 18 -50 20 -48 53 0 19 -1 26 -4 17 -5
-20 -23 -24 -23 -5 0 6 7 32 16 56 10 29 12 47 5 54 -7 7 -7 16 0 28 9 18 12
18 62 -2 28 -12 67 -24 85 -26z m354 -3 c8 0 29 -5 46 -11 28 -10 30 -12 20
-40 -9 -26 -39 -53 -60 -54 -3 0 -10 -3 -14 -7 -4 -5 -20 -8 -35 -8 -15 0 -30
-4 -34 -10 -6 -9 -19 0 -74 53 -15 15 -38 27 -50 27 -12 0 -19 4 -16 10 5 9
-24 15 -48 11 -5 -1 -7 6 -5 16 3 16 16 18 99 19 52 0 104 6 115 12 15 9 21 8
30 -3 6 -8 18 -15 26 -15z m-81 -160 c10 -6 19 -14 19 -19 0 -8 -161 -94 -199
-106 -21 -6 -23 -5 -18 14 3 13 -1 25 -11 31 -14 8 -12 9 9 10 21 0 28 6 34
27 4 16 11 34 17 40 13 16 121 17 149 3z"/>
<path d="M5811 3785 c3 -2 24 -17 46 -32 50 -34 131 -132 157 -191 l19 -43 13
31 c22 50 31 34 22 -37 -6 -46 -4 -83 4 -116 14 -57 26 -41 27 36 1 26 9 71
20 101 15 42 17 64 10 106 -9 59 -16 71 -29 50 -5 -9 -5 -17 1 -21 7 -4 7 -17
1 -40 -8 -28 -10 -30 -11 -10 -1 14 -8 32 -17 42 -8 9 -16 26 -17 38 -1 11 -5
21 -10 21 -4 0 -6 4 -3 9 6 9 -39 24 -142 46 -76 16 -99 18 -91 10z"/>
<path d="M2997 1353 c-10 -3 -37 -26 -61 -51 -24 -26 -67 -72 -95 -102 -32
-34 -69 -91 -98 -150 -26 -52 -62 -119 -81 -149 -19 -29 -29 -50 -23 -46 8 5
10 -1 5 -20 -6 -26 -6 -27 16 -15 21 11 22 10 15 -6 -4 -11 -16 -40 -25 -67
-9 -26 -20 -50 -24 -54 -11 -11 -6 -23 10 -23 8 0 12 5 9 11 -7 10 34 79 48
79 4 0 7 7 7 15 0 9 11 20 24 25 18 6 26 19 31 49 4 23 11 41 16 41 5 0 9 10
9 23 1 32 46 156 66 178 9 10 24 19 33 19 19 0 27 46 11 65 -8 9 0 24 27 53
60 65 115 135 102 131 -2 -1 -12 -3 -22 -6z"/>
<path d="M3145 1233 c-17 -17 -39 -62 -37 -75 1 -4 -4 -5 -12 -2 -8 3 -22 -6
-33 -22 -10 -15 -35 -45 -55 -67 -42 -44 -83 -105 -75 -113 3 -3 24 4 47 16
43 22 70 21 70 -2 0 -7 -16 -38 -35 -68 -49 -75 -45 -93 12 -62 14 8 20 18 16
27 -3 9 5 24 21 36 16 13 25 27 22 36 -3 8 5 36 19 63 14 27 25 57 25 67 0 27
31 147 41 158 24 26 0 34 -26 8z"/>
<path d="M0 265 l0 -265 180 0 c147 0 180 3 180 14 0 12 -21 28 -42 30 -11 1
-43 39 -51 59 -3 9 -11 17 -17 17 -5 0 -10 9 -10 21 0 11 -4 18 -9 15 -5 -3
-11 8 -15 24 -3 18 -12 30 -21 30 -17 0 -20 26 -4 36 15 9 3 122 -17 151 -8
12 -14 33 -14 47 0 19 -7 26 -32 32 -18 4 -27 9 -19 12 12 4 -80 42 -101 42
-4 0 -8 -119 -8 -265z"/>
<path d="M6030 471 c-57 -12 -101 -40 -169 -109 -64 -65 -64 -65 -57 -31 9 47
38 83 71 89 48 9 40 27 -16 33 -60 7 -80 0 -54 -19 18 -13 18 -15 -2 -36 -27
-30 -53 -82 -53 -106 0 -10 8 -26 19 -36 17 -16 19 -15 36 11 36 56 116 120
135 108 14 -9 13 -28 -2 -23 -11 4 -58 -53 -58 -70 0 -18 24 -30 44 -22 14 5
28 3 40 -6 16 -11 23 -11 48 2 25 13 29 13 34 -1 9 -21 34 -19 34 4 0 10 3 33
6 50 4 20 3 31 -5 31 -6 0 -11 -6 -11 -14 0 -16 -77 -69 -84 -58 -9 15 13 36
36 37 16 0 23 6 23 20 0 35 -39 30 -86 -12 -45 -40 -44 -32 4 29 25 34 27 39
12 45 -15 5 -14 8 6 19 13 7 45 16 72 20 41 6 47 10 47 30 0 26 -7 27 -70 15z"/>
<path d="M6142 258 c3 -7 -2 -19 -9 -27 -11 -10 -14 -34 -11 -86 2 -54 0 -71
-9 -68 -7 3 -2 -13 10 -36 18 -33 27 -41 50 -41 28 0 29 1 22 41 -4 24 -3 39
2 36 5 -3 6 21 2 56 -3 34 -4 64 -2 67 6 7 22 -23 17 -32 -3 -4 1 -8 9 -8 12
0 13 7 7 36 -10 43 -25 59 -63 68 -21 5 -28 3 -25 -6z"/>
</g>
</svg>
